<?xml version="1.0" encoding="UTF-8"?>
<svg id="Icosphere" xmlns="http://www.w3.org/2000/svg" viewBox="0 0 283.46 283.46">
  <g>
    <polygon points="226.51 223 176.48 257.84 210.78 231.21 226.51 223" style="fill: none; stroke: #8f9294; stroke-linecap: round; stroke-linejoin: round; stroke-width: .52px;"/>
    <polygon points="176.48 257.84 114.31 257.51 136.94 253.9 176.48 257.84" style="fill: none; stroke: #8f9294; stroke-linecap: round; stroke-linejoin: round; stroke-width: .52px;"/>
    <polygon points="136.94 253.9 114.31 257.51 66.76 232.18 136.94 253.9" style="fill: none; stroke: #8f9294; stroke-linecap: round; stroke-linejoin: round; stroke-width: .52px;"/>
    <polygon points="64.45 93.47 28.08 118.86 55.57 61.84 64.45 93.47" style="fill: none; stroke: #8f9294; stroke-linecap: round; stroke-linejoin: round; stroke-width: .52px;"/>
    <polygon points="45.78 169.04 28.08 118.86 64.45 93.47 45.78 169.04" style="fill: none; stroke: #8f9294; stroke-linecap: round; stroke-linejoin: round; stroke-width: .52px;"/>
    <polygon points="45.78 169.04 28.25 178.02 28.08 118.86 45.78 169.04" style="fill: none; stroke: #8f9294; stroke-linecap: round; stroke-linejoin: round; stroke-width: .52px;"/>
    <polygon points="66.76 232.18 28.25 178.02 45.78 169.04 66.76 232.18" style="fill: none; stroke: #8f9294; stroke-linecap: round; stroke-linejoin: round; stroke-width: .52px;"/>
    <polygon points="226.51 223 210.78 231.21 255.54 175.04 226.51 223" style="fill: none; stroke: #8f9294; stroke-linecap: round; stroke-linejoin: round; stroke-width: .52px;"/>
    <polygon points="210.78 231.21 224.92 174.25 255.54 175.04 210.78 231.21" style="fill: none; stroke: #8f9294; stroke-linecap: round; stroke-linejoin: round; stroke-width: .52px;"/>
    <polygon points="64.45 93.47 55.57 61.84 113.32 39.25 64.45 93.47" style="fill: none; stroke: #8f9294; stroke-linecap: round; stroke-linejoin: round; stroke-width: .52px;"/>
    <polygon points="113.32 39.25 55.57 61.84 108.36 30.69 113.32 39.25" style="fill: none; stroke: #8f9294; stroke-linecap: round; stroke-linejoin: round; stroke-width: .52px;"/>
    <polygon points="170.58 28.15 113.32 39.25 108.36 30.69 170.58 28.15" style="fill: none; stroke: #8f9294; stroke-linecap: round; stroke-linejoin: round; stroke-width: .52px;"/>
    <polygon points="225.81 60.4 185.72 57.32 170.58 28.15 225.81 60.4" style="fill: none; stroke: #8f9294; stroke-linecap: round; stroke-linejoin: round; stroke-width: .52px;"/>
    <polygon points="255.2 109.86 241 110.96 225.81 60.4 255.2 109.86" style="fill: none; stroke: #8f9294; stroke-linecap: round; stroke-linejoin: round; stroke-width: .52px;"/>
    <polygon points="255.54 175.04 241 110.96 255.2 109.86 255.54 175.04" style="fill: none; stroke: #8f9294; stroke-linecap: round; stroke-linejoin: round; stroke-width: .52px;"/>
    <polygon points="255.54 175.04 224.92 174.25 241 110.96 255.54 175.04" style="fill: none; stroke: #8f9294; stroke-linecap: round; stroke-linejoin: round; stroke-width: .52px;"/>
    <polygon points="241 110.96 185.72 57.32 225.81 60.4 241 110.96" style="fill: none; stroke: #8f9294; stroke-linecap: round; stroke-linejoin: round; stroke-width: .52px;"/>
    <polygon points="241 110.96 183.52 126.16 185.72 57.32 241 110.96" style="fill: none; stroke: #8f9294; stroke-linecap: round; stroke-linejoin: round; stroke-width: .52px;"/>
    <polygon points="183.52 126.16 128.46 82.82 185.72 57.32 183.52 126.16" style="fill: none; stroke: #8f9294; stroke-linecap: round; stroke-linejoin: round; stroke-width: .52px;"/>
    <polygon points="185.72 57.32 113.32 39.25 170.58 28.15 185.72 57.32" style="fill: none; stroke: #8f9294; stroke-linecap: round; stroke-linejoin: round; stroke-width: .52px;"/>
    <polygon points="224.92 174.25 183.52 126.16 241 110.96 224.92 174.25" style="fill: none; stroke: #8f9294; stroke-linecap: round; stroke-linejoin: round; stroke-width: .52px;"/>
    <polygon points="136.94 253.9 66.76 232.18 96.14 213.29 136.94 253.9" style="fill: none; stroke: #8f9294; stroke-linecap: round; stroke-linejoin: round; stroke-width: .52px;"/>
    <polygon points="164.6 203.51 96.14 213.29 106.49 148.74 164.6 203.51" style="fill: none; stroke: #8f9294; stroke-linecap: round; stroke-linejoin: round; stroke-width: .52px;"/>
    <polygon points="96.14 213.29 45.78 169.04 106.49 148.74 96.14 213.29" style="fill: none; stroke: #8f9294; stroke-linecap: round; stroke-linejoin: round; stroke-width: .52px;"/>
    <polygon points="96.14 213.29 66.76 232.18 45.78 169.04 96.14 213.29" style="fill: none; stroke: #8f9294; stroke-linecap: round; stroke-linejoin: round; stroke-width: .52px;"/>
    <polygon points="136.94 253.9 96.14 213.29 164.6 203.51 136.94 253.9" style="fill: none; stroke: #8f9294; stroke-linecap: round; stroke-linejoin: round; stroke-width: .52px;"/>
    <polygon points="183.52 126.16 106.49 148.74 128.46 82.82 183.52 126.16" style="fill: none; stroke: #8f9294; stroke-linecap: round; stroke-linejoin: round; stroke-width: .52px;"/>
    <polygon points="164.6 203.51 106.49 148.74 183.52 126.16 164.6 203.51" style="fill: none; stroke: #8f9294; stroke-linecap: round; stroke-linejoin: round; stroke-width: .52px;"/>
    <polygon points="224.92 174.25 164.6 203.51 183.52 126.16 224.92 174.25" style="fill: none; stroke: #8f9294; stroke-linecap: round; stroke-linejoin: round; stroke-width: .52px;"/>
    <polygon points="210.78 231.21 164.6 203.51 224.92 174.25 210.78 231.21" style="fill: none; stroke: #8f9294; stroke-linecap: round; stroke-linejoin: round; stroke-width: .52px;"/>
    <polygon points="128.46 82.82 64.45 93.47 113.32 39.25 128.46 82.82" style="fill: none; stroke: #8f9294; stroke-linecap: round; stroke-linejoin: round; stroke-width: .52px;"/>
    <polygon points="106.49 148.74 64.45 93.47 128.46 82.82 106.49 148.74" style="fill: none; stroke: #8f9294; stroke-linecap: round; stroke-linejoin: round; stroke-width: .52px;"/>
    <polygon points="106.49 148.74 45.78 169.04 64.45 93.47 106.49 148.74" style="fill: none; stroke: #8f9294; stroke-linecap: round; stroke-linejoin: round; stroke-width: .52px;"/>
    <polygon points="210.78 231.21 136.94 253.9 164.6 203.51 210.78 231.21" style="fill: none; stroke: #8f9294; stroke-linecap: round; stroke-linejoin: round; stroke-width: .52px;"/>
    <polygon points="210.78 231.21 176.48 257.84 136.94 253.9 210.78 231.21" style="fill: none; stroke: #8f9294; stroke-linecap: round; stroke-linejoin: round; stroke-width: .52px;"/>
    <polygon points="185.72 57.32 128.46 82.82 113.32 39.25 185.72 57.32" style="fill: none; stroke: #8f9294; stroke-linecap: round; stroke-linejoin: round; stroke-width: .52px;"/>
  </g>
  <path d="m183.52,122.33c2.12,0,3.83,1.71,3.83,3.83,0,2.12-1.72,3.83-3.83,3.83-2.12,0-3.83-1.71-3.83-3.83,0-2.12,1.72-3.83,3.83-3.83Z" style="fill: #8f9294; stroke-width: 0px;"/>
  <path d="m188.88,57.32c0,1.75-1.42,3.17-3.17,3.17s-3.17-1.42-3.17-3.17,1.42-3.17,3.17-3.17,3.17,1.42,3.17,3.17Z" style="fill: #8f9294; stroke-width: 0px;"/>
  <path d="m128.46,78.99c2.12,0,3.83,1.71,3.83,3.83,0,2.12-1.72,3.83-3.83,3.83-2.12,0-3.83-1.71-3.83-3.83,0-2.11,1.72-3.83,3.83-3.83Z" style="fill: #8f9294; stroke-width: 0px;"/>
  <path d="m106.49,144.91c2.12,0,3.83,1.71,3.83,3.83,0,2.12-1.72,3.83-3.83,3.83-2.12,0-3.83-1.71-3.83-3.83,0-2.12,1.71-3.83,3.83-3.83Z" style="fill: #8f9294; stroke-width: 0px;"/>
  <path d="m99.4,213.19c0,1.75-1.42,3.17-3.17,3.17s-3.17-1.42-3.17-3.17c0-1.75,1.42-3.17,3.17-3.17s3.17,1.42,3.17,3.17Z" style="fill: #8f9294; stroke-width: 0px;"/>
  <path d="m164.6,199.68c2.12,0,3.83,1.72,3.83,3.83,0,2.12-1.72,3.83-3.83,3.83-2.12,0-3.83-1.71-3.83-3.83,0-2.12,1.72-3.83,3.83-3.83Z" style="fill: #8f9294; stroke-width: 0px;"/>
  <path d="m140.11,253.9c0,1.75-1.42,3.17-3.17,3.17s-3.17-1.42-3.17-3.17c0-1.75,1.42-3.17,3.17-3.17s3.17,1.42,3.17,3.17Z" style="fill: #8f9294; stroke-width: 0px;"/>
  <path d="m213.1,231.21c0,1.28-1.04,2.32-2.32,2.32s-2.32-1.04-2.32-2.32c0-1.28,1.04-2.32,2.32-2.32,1.28,0,2.32,1.04,2.32,2.32Z" style="fill: #8f9294; stroke-width: 0px;"/>
  <path d="m228.09,174.26c0,1.75-1.42,3.17-3.17,3.17s-3.17-1.42-3.17-3.17c0-1.75,1.42-3.17,3.17-3.17,1.75,0,3.17,1.42,3.17,3.17Z" style="fill: #8f9294; stroke-width: 0px;"/>
  <path d="m244.16,110.96c0,1.75-1.42,3.17-3.17,3.17-1.75,0-3.17-1.42-3.17-3.17,0-1.75,1.42-3.17,3.17-3.17s3.17,1.42,3.17,3.17Z" style="fill: #8f9294; stroke-width: 0px;"/>
  <path d="m256.66,111.32c-.81.81-2.12.81-2.93,0s-.81-2.12,0-2.93c.81-.81,2.12-.81,2.93,0,.81.81.81,2.12,0,2.93Z" style="fill: #8f9294; stroke-width: 0px;"/>
  <path d="m227.28,61.86c-.81.81-2.12.81-2.93,0-.81-.81-.81-2.12,0-2.93.81-.81,2.12-.81,2.93,0,.81.81.81,2.12,0,2.93Z" style="fill: #8f9294; stroke-width: 0px;"/>
  <path d="m172.04,29.62c-.81.81-2.12.81-2.93,0s-.81-2.12,0-2.93c.81-.81,2.12-.81,2.93,0,.81.81.81,2.12,0,2.93Z" style="fill: #8f9294; stroke-width: 0px;"/>
  <path d="m109.82,32.16c-.81.81-2.12.81-2.93,0-.81-.81-.81-2.12,0-2.93.81-.81,2.12-.81,2.93,0,.81.81.81,2.12,0,2.93Z" style="fill: #8f9294; stroke-width: 0px;"/>
  <path d="m57.03,63.3c-.81.81-2.12.81-2.93,0-.81-.81-.81-2.12,0-2.93s2.12-.81,2.93,0c.81.81.81,2.12,0,2.93Z" style="fill: #8f9294; stroke-width: 0px;"/>
  <path d="m29.55,120.32c-.81.81-2.12.81-2.93,0-.81-.81-.81-2.12,0-2.93.81-.81,2.12-.81,2.93,0,.81.81.81,2.12,0,2.93Z" style="fill: #8f9294; stroke-width: 0px;"/>
  <path d="m29.57,179.1c-.81.81-2.12.81-2.93,0-.81-.81-.81-2.12,0-2.93.81-.81,2.12-.81,2.93,0,.81.81.81,2.12,0,2.93Z" style="fill: #8f9294; stroke-width: 0px;"/>
  <path d="m68.23,233.64c-.81.81-2.12.81-2.93,0s-.81-2.12,0-2.93c.81-.81,2.12-.81,2.93,0,.81.81.81,2.12,0,2.93Z" style="fill: #8f9294; stroke-width: 0px;"/>
  <path d="m115.78,258.98c-.81.81-2.12.81-2.93,0-.81-.81-.81-2.12,0-2.93.81-.81,2.12-.81,2.93,0,.81.81.81,2.12,0,2.93Z" style="fill: #8f9294; stroke-width: 0px;"/>
  <path d="m177.89,259.57c-.81.81-2.12.81-2.93,0-.81-.81-.81-2.12,0-2.93.81-.81,2.12-.81,2.93,0,.81.81.81,2.12,0,2.93Z" style="fill: #8f9294; stroke-width: 0px;"/>
  <path d="m227.98,224.47c-.81.81-2.12.81-2.93,0-.81-.81-.81-2.12,0-2.93.81-.81,2.12-.81,2.93,0,.81.81.81,2.12,0,2.93Z" style="fill: #8f9294; stroke-width: 0px;"/>
  <path d="m257,176.5c-.81.81-2.12.81-2.93,0-.81-.81-.81-2.12,0-2.93.81-.81,2.12-.81,2.93,0,.81.81.81,2.12,0,2.93Z" style="fill: #8f9294; stroke-width: 0px;"/>
  <path d="m116.31,38.89c0,1.57-1.27,2.84-2.84,2.84-1.57,0-2.84-1.27-2.84-2.84,0-1.57,1.27-2.84,2.84-2.84,1.57,0,2.84,1.27,2.84,2.84Z" style="fill: #8f9294; stroke-width: 0px;"/>
  <path d="m67.62,93.47c0,1.75-1.42,3.17-3.17,3.17s-3.17-1.42-3.17-3.17c0-1.75,1.42-3.17,3.17-3.17s3.17,1.42,3.17,3.17Z" style="fill: #8f9294; stroke-width: 0px;"/>
  <path d="m48.95,169.04c0,1.75-1.42,3.17-3.17,3.17-1.75,0-3.17-1.42-3.17-3.17s1.42-3.17,3.17-3.17,3.17,1.42,3.17,3.17Z" style="fill: #8f9294; stroke-width: 0px;"/>
</svg>
